<svg xmlns="http://www.w3.org/2000/svg" viewBox="0 0 600 600">
  <rect width="600" height="600" fill="#F5F4F1"/>
  <!-- ground shadow -->
  <ellipse cx="300" cy="498" rx="165" ry="20" fill="#E7E5E0"/>
  <!-- steam -->
  <g fill="none" stroke="#9CA3AF" stroke-width="7" stroke-linecap="round" opacity="0.8">
    <path d="M258 128 q12 -22 0 -44"/>
    <path d="M300 120 q14 -26 0 -52"/>
    <path d="M342 128 q12 -22 0 -44"/>
  </g>
  <!-- kettle body -->
  <path d="M212 200 l176 0 q10 130 22 210 q4 34 -30 34 l-160 0 q-34 0 -30 -34 q12 -80 22 -210 z" fill="#2A6B63"/>
  <!-- highlight -->
  <path d="M232 210 q-8 120 -18 196 q-2 20 16 22 l20 0 q-14 -110 -4 -218 z" fill="#5FA19A" opacity="0.7"/>
  <!-- water level window -->
  <rect x="330" y="250" width="22" height="150" rx="11" fill="#B9D9D5"/>
  <rect x="330" y="310" width="22" height="90" rx="11" fill="#8FC0BA"/>
  <!-- lid -->
  <path d="M206 200 q0 -26 30 -26 l128 0 q30 0 30 26 z" fill="#22574F"/>
  <rect x="272" y="150" width="56" height="18" rx="9" fill="#6B7280"/>
  <!-- spout -->
  <path d="M212 208 l-44 22 q-10 6 -4 16 l20 30 26 -16 z" fill="#2A6B63"/>
  <!-- handle -->
  <path d="M388 214 q78 10 74 92 q-4 78 -68 96 l-6 -26 q46 -14 48 -72 q2 -56 -54 -64 z" fill="#22574F"/>
  <!-- switch -->
  <rect x="424" y="368" width="18" height="34" rx="9" fill="#D97706"/>
  <!-- power base -->
  <rect x="180" y="452" width="240" height="24" rx="12" fill="#6B7280"/>
  <rect x="160" y="472" width="280" height="20" rx="10" fill="#4B5563"/>
  <circle cx="300" cy="464" r="6" fill="#B9D9D5"/>
</svg>
