<svg xmlns="http://www.w3.org/2000/svg" viewBox="0 0 600 600">
  <rect width="600" height="600" fill="#F2ECE1"/>
  <ellipse cx="300" cy="492" rx="150" ry="20" fill="#E6DDCC"/>
  <!-- mist -->
  <g fill="none" stroke="#B9D9D5" stroke-width="12" stroke-linecap="round">
    <path d="M300 168 q-40 -44 4 -80"/>
    <path d="M248 196 q-44 -30 -18 -76"/>
    <path d="M352 196 q44 -30 18 -76"/>
  </g>
  <!-- body -->
  <path d="M196 236 l208 0 q22 0 22 24 l0 190 q0 26 -26 26 l-200 0 q-26 0 -26 -26 l0 -190 q0 -24 22 -24 z" fill="#2A6B63"/>
  <path d="M196 236 l40 0 0 240 -34 0 q-26 0 -26 -26 l0 -190 q0 -24 20 -24 z" fill="#5FA19A" opacity="0.6"/>
  <!-- water window -->
  <rect x="256" y="286" width="88" height="150" rx="20" fill="#F2ECE1" opacity="0.9"/>
  <path d="M256 366 l88 0 0 50 q0 20 -20 20 l-48 0 q-20 0 -20 -20 z" fill="#B9D9D5"/>
  <!-- nozzle -->
  <path d="M258 236 l84 0 q0 -34 -42 -34 q-42 0 -42 34 z" fill="#22574F"/>
  <ellipse cx="300" cy="202" rx="26" ry="9" fill="#4B5563"/>
  <!-- control -->
  <circle cx="300" cy="462" r="17" fill="#D97706"/>
  <rect x="176" y="470" width="248" height="16" rx="8" fill="#4B5563"/>
</svg>
